<svg width="22" height="24" viewBox="0 0 22 24" fill="none" xmlns="http://www.w3.org/2000/svg">
<path d="M11.0008 9C10.2715 9 9.57202 9.31607 9.05629 9.87868C8.54057 10.4413 8.25084 11.2044 8.25084 12C8.25084 12.7956 8.54057 13.5587 9.05629 14.1213C9.57202 14.6839 10.2715 15 11.0008 15C11.7302 15 12.4297 14.6839 12.9454 14.1213C13.4611 13.5587 13.7508 12.7956 13.7508 12C13.7508 11.2044 13.4611 10.4413 12.9454 9.87868C12.4297 9.31607 11.7302 9 11.0008 9ZM11.0008 7C12.2164 7 13.3822 7.52678 14.2417 8.46447C15.1013 9.40215 15.5842 10.6739 15.5842 12C15.5842 13.3261 15.1013 14.5979 14.2417 15.5355C13.3822 16.4732 12.2164 17 11.0008 17C9.78526 17 8.61947 16.4732 7.75993 15.5355C6.90039 14.5979 6.4175 13.3261 6.4175 12C6.4175 10.6739 6.90039 9.40215 7.75993 8.46447C8.61947 7.52678 9.78526 7 11.0008 7ZM16.9592 6.75C16.9592 7.08152 16.8384 7.39946 16.6236 7.63388C16.4087 7.8683 16.1172 8 15.8133 8C15.5094 8 15.218 7.8683 15.0031 7.63388C14.7882 7.39946 14.6675 7.08152 14.6675 6.75C14.6675 6.41848 14.7882 6.10054 15.0031 5.86612C15.218 5.6317 15.5094 5.5 15.8133 5.5C16.1172 5.5 16.4087 5.6317 16.6236 5.86612C16.8384 6.10054 16.9592 6.41848 16.9592 6.75ZM11.0008 4C8.733 4 8.36267 4.007 7.30759 4.058C6.58892 4.095 6.10675 4.2 5.65942 4.39C5.28527 4.54037 4.94691 4.78063 4.66942 5.093C4.38275 5.39562 4.16219 5.76474 4.02409 6.173C3.84992 6.663 3.75367 7.188 3.72067 7.971C3.673 9.075 3.66659 9.461 3.66659 12C3.66659 14.475 3.673 14.878 3.71975 16.029C3.75367 16.812 3.84992 17.339 4.02317 17.826C4.179 18.261 4.36234 18.574 4.66667 18.906C4.97559 19.242 5.2625 19.443 5.65667 19.609C6.1095 19.8 6.59167 19.906 7.30667 19.942C8.31867 19.994 8.6725 20 10.9999 20C13.2687 20 13.6381 19.993 14.6932 19.942C15.41 19.905 15.8922 19.8 16.3404 19.611C16.7146 19.4606 17.0529 19.2204 17.3304 18.908C17.6393 18.572 17.8236 18.259 17.9758 17.828C18.1499 17.336 18.2471 16.81 18.2801 16.028C18.3278 14.925 18.3333 14.538 18.3333 12C18.3333 9.526 18.3268 9.122 18.2801 7.971C18.2462 7.189 18.149 6.661 17.9758 6.173C17.8379 5.76483 17.6177 5.39572 17.3313 5.093C17.0539 4.78027 16.7156 4.53966 16.3413 4.389C15.8922 4.199 15.41 4.094 14.6932 4.058C13.6821 4.006 13.3283 4 10.9999 4M10.9999 2C13.4905 2 13.8013 2.01 14.7793 2.06C15.7547 2.11 16.4202 2.277 17.0041 2.525C17.6091 2.779 18.1188 3.123 18.6284 3.678C19.0947 4.17773 19.4554 4.78247 19.6853 5.45C19.9118 6.087 20.0658 6.813 20.1116 7.878C20.1547 8.944 20.1666 9.283 20.1666 12C20.1666 14.717 20.1574 15.056 20.1116 16.122C20.0658 17.188 19.9118 17.912 19.6853 18.55C19.4554 19.2175 19.0947 19.8223 18.6284 20.322C18.1703 20.8307 17.616 21.2242 17.0041 21.475C16.4202 21.722 15.7547 21.89 14.7793 21.94C13.8013 21.987 13.4905 22 10.9999 22C8.50934 22 8.19859 21.99 7.2205 21.94C6.24517 21.89 5.58059 21.722 4.99575 21.475C4.38385 21.2242 3.82951 20.8307 3.37142 20.322C2.90512 19.8223 2.54442 19.2175 2.3145 18.55C2.08717 17.913 1.93409 17.187 1.88825 16.122C1.84425 15.056 1.83325 14.717 1.83325 12C1.83325 9.283 1.84242 8.944 1.88825 7.878C1.93409 6.812 2.08717 6.088 2.3145 5.45C2.54442 4.78247 2.90512 4.17773 3.37142 3.678C3.82951 3.16931 4.38385 2.77582 4.99575 2.525C5.57967 2.277 6.24425 2.11 7.2205 2.06C8.1995 2.013 8.51025 2 11.0008 2" fill="white"/>
</svg>
