<svg width="22" height="16" viewBox="0 0 22 16" fill="none" xmlns="http://www.w3.org/2000/svg">
<g clip-path="url(#clip0_91_3)">
<path d="M20.6047 2.49556C20.4838 2.01321 20.2481 1.57346 19.9209 1.22011C19.5937 0.866766 19.1866 0.612143 18.74 0.4816C17.1049 0 10.5243 0 10.5243 0C10.5243 0 3.9434 0.0145777 2.30833 0.496178C1.86171 0.626729 1.45454 0.881365 1.12738 1.23473C0.800218 1.58809 0.564479 2.02786 0.443638 2.51022C-0.0509308 5.64782 -0.242783 10.4288 0.457218 13.4409C0.578072 13.9232 0.813817 14.363 1.14098 14.7163C1.46814 15.0697 1.8753 15.3243 2.32191 15.4548C3.95698 15.9364 10.5377 15.9364 10.5377 15.9364C10.5377 15.9364 17.1184 15.9364 18.7534 15.4548C19.2 15.3243 19.6072 15.0697 19.9344 14.7163C20.2615 14.363 20.4973 13.9233 20.6182 13.4409C21.1398 10.2988 21.3006 5.5208 20.6047 2.49556Z" fill="#FF0000"/>
<path d="M8.42969 11.3826L13.8888 7.96767L8.42969 4.55273V11.3826Z" fill="white"/>
</g>
<defs>
<clipPath id="clip0_91_3">
<rect width="21.07" height="16" fill="white"/>
</clipPath>
</defs>
</svg>
