<svg width="96" height="56" viewBox="0 0 96 56" fill="none" xmlns="http://www.w3.org/2000/svg">
<path d="M22.4339 51.8674V47.8969C22.4339 46.3745 21.4905 45.3821 19.8735 45.3821C19.0652 45.3821 18.1893 45.6468 17.5829 46.5072C17.1116 45.7791 16.4379 45.3821 15.4274 45.3821C14.7535 45.3821 14.0802 45.5805 13.541 46.3085V45.5145H12.1262V51.8674H13.541V48.3599C13.541 47.2352 14.1474 46.7055 15.0907 46.7055C16.0335 46.7055 16.5055 47.3012 16.5055 48.3599V51.8674H17.9202V48.3599C17.9202 47.2352 18.5935 46.7055 19.4693 46.7055C20.4127 46.7055 20.8841 47.3012 20.8841 48.3599V51.8674H22.4339ZM43.3852 45.5145H41.0949V43.5954H39.6801V45.5145H38.4001V46.7715H39.6798V49.6836C39.6798 51.1396 40.2862 51.9997 41.9032 51.9997C42.5096 51.9997 43.1829 51.8013 43.6549 51.5367L43.2504 50.3453C42.8463 50.61 42.3749 50.6763 42.0379 50.6763C41.3643 50.6763 41.0949 50.2793 41.0949 49.6173V46.7715H43.3852V45.5145ZM55.377 45.3818C54.5686 45.3818 54.0297 45.7791 53.6928 46.3085V45.5145H52.278V51.8674H53.6928V48.2939C53.6928 47.2352 54.1642 46.6395 55.04 46.6395C55.3095 46.6395 55.6464 46.7058 55.9159 46.7718L56.32 45.4484C56.0506 45.3821 55.6464 45.3821 55.377 45.3821M37.2548 46.0441C36.5809 45.5808 35.6379 45.3824 34.6273 45.3824C33.0106 45.3824 31.9328 46.1765 31.9328 47.4338C31.9328 48.4928 32.7412 49.0882 34.1559 49.2869L34.8295 49.3532C35.5707 49.4852 35.9748 49.6839 35.9748 50.0149C35.9748 50.4779 35.4359 50.8089 34.4926 50.8089C33.5492 50.8089 32.8084 50.4779 32.3367 50.1472L31.6631 51.206C32.4042 51.7353 33.4148 52 34.4251 52C36.3115 52 37.3896 51.1399 37.3896 49.9486C37.3896 48.8235 36.5137 48.2279 35.1662 48.0295L34.4926 47.9632C33.8862 47.8969 33.4148 47.7648 33.4148 47.3678C33.4148 46.9045 33.8862 46.6398 34.6273 46.6398C35.4359 46.6398 36.2443 46.9705 36.6484 47.1691L37.2548 46.0441ZM74.8466 45.3824C74.038 45.3824 73.4991 45.7794 73.1621 46.3088V45.5148H71.7474V51.8677H73.1621V48.2942C73.1621 47.2355 73.6338 46.6398 74.5094 46.6398C74.7791 46.6398 75.1161 46.7061 75.3855 46.7721L75.7897 45.4487C75.5202 45.3824 75.1161 45.3824 74.8466 45.3824ZM56.7917 48.6912C56.7917 50.6103 58.1389 52 60.2276 52C61.1706 52 61.8442 51.8016 62.5179 51.2723L61.8442 50.1472C61.3054 50.5443 60.7665 50.7426 60.1601 50.7426C59.0148 50.7426 58.2064 49.9486 58.2064 48.6912C58.2064 47.5002 59.0148 46.7058 60.1601 46.6398C60.7665 46.6398 61.3054 46.8382 61.8442 47.2355L62.5179 46.1104C61.8442 45.5808 61.1706 45.3824 60.2276 45.3824C58.1389 45.3824 56.7917 46.7721 56.7917 48.6912ZM69.8613 48.6912V45.5148H68.4466V46.3088C67.9749 45.7134 67.3013 45.3824 66.4254 45.3824C64.6065 45.3824 63.1918 46.7721 63.1918 48.6912C63.1918 50.6103 64.6065 52 66.4254 52C67.3685 52 68.0424 51.6693 68.4466 51.0736V51.8677H69.8613V48.6912ZM64.6737 48.6912C64.6737 47.5662 65.4148 46.6398 66.6273 46.6398C67.7726 46.6398 68.5813 47.5002 68.5813 48.6912C68.5813 49.8162 67.7726 50.7426 66.6273 50.7426C65.4148 50.6763 64.6737 49.8162 64.6737 48.6912ZM47.7644 45.3824C45.878 45.3824 44.5304 46.7058 44.5304 48.6912C44.5304 50.6766 45.8777 52 47.8316 52C48.7747 52 49.718 51.7353 50.4591 51.1399L49.7852 50.1472C49.2463 50.5443 48.5727 50.8089 47.8991 50.8089C47.0233 50.8089 46.1474 50.4119 45.9452 49.2866H50.7286V48.7575C50.7961 46.7058 49.5836 45.3824 47.7644 45.3824ZM47.7641 46.5735C48.6396 46.5735 49.2463 47.1031 49.3808 48.0958H46.0124C46.1471 47.2355 46.7535 46.5735 47.7641 46.5735ZM82.8631 48.6912V43H81.4483V46.3088C80.9766 45.7134 80.303 45.3824 79.4272 45.3824C77.6083 45.3824 76.1935 46.7721 76.1935 48.6912C76.1935 50.6103 77.6083 52 79.4272 52C80.3706 52 81.0442 51.6693 81.4483 51.0736V51.8677H82.8631V48.6912ZM77.6758 48.6912C77.6758 47.5662 78.4166 46.6398 79.6294 46.6398C80.7747 46.6398 81.5831 47.5002 81.5831 48.6912C81.5831 49.8162 80.7747 50.7426 79.6294 50.7426C78.4166 50.6763 77.6758 49.8162 77.6758 48.6912ZM30.3828 48.6912V45.5148H28.968V46.3088C28.4964 45.7134 27.8227 45.3824 26.9469 45.3824C25.128 45.3824 23.7133 46.7721 23.7133 48.6912C23.7133 50.6103 25.128 52 26.9469 52C27.8903 52 28.5639 51.6693 28.968 51.0736V51.8677H30.3828V48.6912ZM25.128 48.6912C25.128 47.5662 25.8691 46.6398 27.0816 46.6398C28.2269 46.6398 29.0355 47.5002 29.0355 48.6912C29.0355 49.8162 28.2269 50.7426 27.0816 50.7426C25.8691 50.6763 25.128 49.8162 25.128 48.6912Z" fill="black"/>
<path d="M41.4316 18H52.5474V38H41.4316V18Z" fill="#FF5F00"/>
<path d="M42.2617 27.5C42.2617 23.1876 44.3244 19.3625 47.4948 16.8874C45.1648 15.0875 42.2236 14 39.0149 14C31.4131 14 25.2632 20.0374 25.2632 27.5C25.2632 34.9626 31.4131 41 39.0147 41C42.2234 41 45.1646 39.9125 47.4948 38.1124C44.3244 35.6749 42.2617 31.8124 42.2617 27.5Z" fill="#EB001B"/>
<path d="M68.7155 27.5C68.7155 34.9624 62.8452 41 55.5891 41C52.5263 41 49.7188 39.9125 47.4946 38.1124C50.5574 35.6375 52.49 31.8124 52.49 27.5C52.49 23.1876 50.5209 19.3625 47.4946 16.8874C49.7187 15.0875 52.5263 14 55.5891 14C62.8452 14 68.7155 20.075 68.7155 27.5Z" fill="#F79E1B"/>
</svg>
