<svg width="18" height="20" viewBox="0 0 18 20" fill="none" xmlns="http://www.w3.org/2000/svg">
<g clip-path="url(#clip0_9_23)">
<path d="M9 0C6.61359 0 4.32281 1.05422 2.63672 2.92891C0.948898 4.80435 0.000482975 7.34779 0 10C0 12.6511 0.949219 15.1964 2.63672 17.0711C4.32281 18.9458 6.61359 20 9 20C11.3864 20 13.6772 18.9458 15.3633 17.0711C17.0508 15.1964 18 12.6511 18 10C18 7.34891 17.0508 4.80359 15.3633 2.92891C13.6772 1.05422 11.3864 0 9 0Z" fill="white"/>
<path d="M4.07388 9.89404C6.69795 8.62404 8.44732 7.78675 9.32201 7.38217C11.8223 6.22701 12.3412 6.02639 12.6801 6.01959C12.7547 6.01826 12.9206 6.03873 13.0289 6.136C13.1189 6.21803 13.1442 6.32897 13.1569 6.40686C13.1681 6.48467 13.1836 6.66201 13.1709 6.80045C13.0359 8.3817 12.4495 12.2189 12.1514 13.99C12.0262 14.7394 11.7773 14.9906 11.5369 15.0151C11.0137 15.0686 10.6172 14.6314 10.1109 14.2628C9.3192 13.6858 8.87201 13.3267 8.10279 12.7637C7.21404 12.1131 7.7906 11.7554 8.29685 11.1711C8.42904 11.0181 10.7325 8.69076 10.7761 8.47967C10.7817 8.45326 10.7873 8.35482 10.7339 8.30295C10.6819 8.25092 10.6045 8.26873 10.5483 8.28279C10.4681 8.30279 9.20388 9.23217 6.75138 11.0708C6.39279 11.3448 6.06795 11.4784 5.77545 11.4714C5.45482 11.4637 4.83607 11.2695 4.37623 11.1036C3.81373 10.9 3.36513 10.7923 3.40451 10.4465C3.4242 10.2665 3.64779 10.0823 4.07388 9.89404Z" fill="#25A3E1"/>
</g>
<defs>
<clipPath id="clip0_9_23">
<rect width="18" height="20" fill="white"/>
</clipPath>
</defs>
</svg>
