<svg width="96" height="56" viewBox="0 0 96 56" fill="none" xmlns="http://www.w3.org/2000/svg">
<rect width="96" height="56" rx="8" fill="white"/>
<path d="M80.3697 36.7926L79.6572 34.1676H71.6962L70.4295 36.7739L64.0487 36.7833C68.1506 29.5204 71.1948 24.1405 73.1813 20.6436C73.7007 19.7289 74.6222 19.2623 75.9807 19.2693C77.0193 19.2755 78.7146 19.2763 81.0663 19.2716L86 36.7856L80.3697 36.7926ZM73.4853 30.5719H78.6185L76.7027 23.9919L73.4853 30.5719ZM32.363 19.2669L38.7787 19.2716L28.8607 36.7949L22.3658 36.7903C20.7326 32.1617 19.1197 27.5292 17.5272 22.8929C17.2105 21.9689 16.5835 21.3226 15.377 21.0169C14.2982 20.7447 12.5059 20.3239 10 19.7546V19.2716H20.2505C22.0238 19.2716 23.0593 19.9039 23.3918 21.2013C23.7275 22.5017 24.5719 25.8104 25.9252 31.1273L32.363 19.2669ZM47.5947 19.2716L42.5248 36.7926L36.4163 36.7856L41.4767 19.2669L47.5947 19.2716ZM59.9763 18.9473C61.8035 18.9473 64.1057 19.3673 65.4293 19.7546L64.359 23.3853C63.162 23.0306 61.1923 22.5523 59.5362 22.5686C57.1295 22.5989 55.6412 23.3433 55.6412 24.0573C55.6412 25.2193 58.2252 25.8049 60.8852 27.0743C63.9188 28.5209 64.321 29.8206 64.283 31.2346C64.2418 34.1629 60.8852 37.0539 53.8045 37.0539C50.5745 37.0189 49.4092 36.8206 46.7745 36.1299L47.8892 32.3406C50.5713 33.1666 51.7082 33.4303 54.0008 33.4303C56.1003 33.4303 57.9022 32.8049 57.918 31.7153C57.9307 30.9406 57.2847 30.5556 54.9287 29.5989C52.5727 28.6423 49.2667 27.3146 49.311 24.6476C49.3648 21.2363 53.7507 18.9473 59.9763 18.9473Z" fill="#1C1C1C"/>
</svg>
